<svg xmlns="http://www.w3.org/2000/svg" viewBox="0 0 36 36">
  <rect width="36" height="36" rx="8" fill="#1E4620"/>
  <path d="M18 6v22.5m0 0c-1.84 0-3.6.33-5.23.94M18 28.5c1.84 0 3.6.33 5.23.94M23.44 9.21A60.52 60.52 0 0018 8.63c-1.86 0-3.69.13-5.44.38m10.88 0c.82.12 1.63.26 2.43.42m-2.43-.42l2.13 8.72c.1.4-.09.84-.48.98a4.86 4.86 0 01-1.65.29 4.86 4.86 0 01-1.65-.29c-.39-.14-.58-.57-.48-.98l2.13-8.72zm-13.38.42c.8-.16 1.61-.3 2.43-.42m0 0l2.13 8.72c.1.4-.09.84-.48.98a4.86 4.86 0 01-1.65.29 4.86 4.86 0 01-1.65-.29c-.39-.14-.58-.57-.48-.98l2.13-8.72z" fill="none" stroke="#C9A84C" stroke-width="1.5" stroke-linecap="round" stroke-linejoin="round"/>
</svg>
